<svg xmlns="http://www.w3.org/2000/svg" xmlns:xlink="http://www.w3.org/1999/xlink" preserveAspectRatio="xMidYMid" width="15.5" height="14.063" viewBox="0 0 15.5 14.063">
  <defs>
    <style>
      .cls-1 {
        fill: #002d47;
        fill-rule: evenodd;
      }
    </style>
  </defs>
  <path d="M11.185,-0.010 C9.708,-0.010 8.446,1.084 7.752,1.838 C7.058,1.084 5.799,-0.010 4.322,-0.010 C1.777,-0.010 0.000,1.833 0.000,4.469 C0.000,7.374 2.207,9.252 4.342,11.068 C5.350,11.927 6.393,12.814 7.193,13.798 C7.328,13.962 7.525,14.057 7.732,14.057 L7.773,14.057 C7.981,14.057 8.177,13.962 8.311,13.798 C9.112,12.814 10.155,11.927 11.163,11.069 C13.299,9.253 15.507,7.375 15.507,4.469 C15.507,1.833 13.729,-0.010 11.185,-0.010 Z" class="cls-1"/>
</svg>
